<svg width="512" height="512" viewBox="0 0 512 512" fill="none" xmlns="http://www.w3.org/2000/svg">
<g clip-path="url(#clip0_41_18)">
<path d="M247.215 101.702C165.99 106.278 101.534 173.59 101.534 255.959C101.534 341.291 170.71 410.467 256.043 410.467C338.413 410.467 405.725 346.012 410.301 264.787H507.587C504.076 401.916 391.812 512.001 253.836 512.001C113.646 512.001 0.000166348 398.356 0 258.167C5.54645e-05 120.192 110.085 7.92816 247.215 4.41699V101.702Z" fill="#273D5D"/>
<path d="M407.276 103.724H307.759C307.207 103.724 306.759 103.277 306.759 102.724V1C306.759 0.447715 307.207 0 307.759 0H511C511.552 0 512 0.447719 512 1V204.242C512 204.794 511.552 205.242 511 205.242H409.276C408.724 205.242 408.276 204.794 408.276 204.242V104.724C408.276 104.172 407.828 103.724 407.276 103.724Z" fill="#68C721" stroke="#68C721"/>
</g>
<defs>
<clipPath id="clip0_41_18">
<rect width="512" height="512" fill="white"/>
</clipPath>
</defs>
</svg>