<svg width="833" height="207" viewBox="0 0 833 207" fill="none" xmlns="http://www.w3.org/2000/svg">
<path d="M566.4 172L527.6 64.4H557L589.2 157H575.2L608.8 64.4H635.2L667.8 157H653.8L687 64.4H714.6L675.6 172H645.4L616.8 92.6H626L596.4 172H566.4Z" fill="#ffffff"/>
<path d="M724.75 175V155.26L791.53 76.3L797.2 87.22H726.22V62.02H823.66V81.76L756.88 160.72L751 149.8H825.55V175H724.75Z" fill="#ffffff"/>
<path d="M26 121C26 126.887 27.4025 132.227 30.1875 137.08C33.1332 141.981 36.9727 145.88 41.7256 148.815C46.5774 151.599 51.9154 153 57.8008 153H68.8008C74.8378 153 80.1651 151.589 84.8623 148.822C89.6167 145.889 93.3867 141.996 96.1992 137.104L96.2139 137.08L96.2275 137.057C99.1394 132.204 100.601 126.873 100.601 121V63H126.601V121C126.601 128.98 125.06 136.51 121.966 143.561L121.967 143.562C119.018 150.583 114.866 156.777 109.521 162.121C104.314 167.329 98.2008 171.469 91.209 174.546L91.1953 174.552L91.1826 174.558C84.2506 177.528 76.7784 179 68.8008 179H57.8008C49.8226 179 42.2914 177.529 35.2383 174.566L35.1719 174.537C28.3059 171.454 22.2031 167.245 16.8789 161.921L16.8506 161.893C11.6695 156.571 7.53901 150.478 4.46387 143.629L4.44824 143.596L4.43457 143.562C1.47229 136.508 1.46603e-07 128.978 0 121V63H26V121ZM20.4443 161.196C20.579 161.322 20.7149 161.447 20.8506 161.571C20.5512 161.297 20.2536 161.019 19.959 160.737L20.4443 161.196ZM9.58789 147.163V147.162V147.163ZM6.78027 141.367C6.83205 141.498 6.88368 141.629 6.93652 141.76C6.88367 141.629 6.83208 141.498 6.78027 141.367ZM97.1719 141.185C97.3355 140.947 97.4951 140.705 97.6543 140.463C97.4952 140.705 97.3355 140.947 97.1719 141.185ZM6.52539 140.71C6.56155 140.805 6.59804 140.9 6.63477 140.995C6.59801 140.9 6.56159 140.805 6.52539 140.71ZM97.7559 140.309C97.807 140.23 97.8596 140.152 97.9102 140.072L98.2227 139.572C98.0701 139.821 97.9136 140.065 97.7559 140.309ZM6.25684 139.99C6.29466 140.094 6.33358 140.198 6.37207 140.302C6.33355 140.198 6.2947 140.094 6.25684 139.99ZM103.542 123.077C103.558 122.784 103.573 122.489 103.582 122.193V122.176C103.573 122.477 103.559 122.778 103.542 123.077Z" fill="#68C721"/>
<path d="M100.9 55.8559V57.5V64.5C100.9 66.7091 102.691 68.5 104.9 68.5H122.4C124.61 68.5 126.4 66.7091 126.4 64.5V55.8006C126.4 53.5915 128.191 51.8006 130.4 51.8006H140.972C144.502 51.8006 146.302 47.5597 143.848 45.0208L115.79 15.9894C114.212 14.3574 111.595 14.3632 110.025 16.0023L82.0071 45.2529C79.5525 47.8156 81.4024 52.0681 84.9507 52.0194L96.8455 51.8563C99.0759 51.8257 100.9 53.6253 100.9 55.8559Z" fill="#68C721" stroke="#68C721"/>
<path d="M263.4 82.2C259.534 75.1333 254.6 70 248.6 66.8C242.734 63.4667 236.134 61.8 228.8 61.8C221.067 61.8 214.067 63.8 207.8 67.8C201.667 71.6667 196.8 77 193.2 83.8C189.734 90.6 188 98.3333 188 107C188 116.067 189.734 124 193.2 130.8C196.667 137.467 201.534 142.733 207.8 146.6C214.067 150.333 221.4 152.2 229.8 152.2C235 152.2 239.8 151.333 244.2 149.6C248.6 147.733 252.534 145.2 256 142C259.467 138.8 262.4 135.133 264.8 131V122.2H228.8V97.8H293.8V136.6C290.6 143.933 285.934 150.8 279.8 157.2C273.667 163.467 266.267 168.6 257.6 172.6C248.934 176.467 239.067 178.4 228 178.4C217.6 178.4 208.067 176.667 199.4 173.2C190.734 169.733 183.2 164.8 176.8 158.4C170.4 152 165.4 144.467 161.8 135.8C158.334 127 156.6 117.4 156.6 107C156.6 96.6 158.334 87.0667 161.8 78.4C165.4 69.6 170.334 62 176.6 55.6C183 49.2 190.534 44.2667 199.2 40.8C207.867 37.3333 217.4 35.6 227.8 35.6C237.534 35.6 246.667 37.1333 255.2 40.2C263.867 43.2667 271.4 47.7333 277.8 53.6C284.2 59.3333 288.934 66.3333 292 74.6L263.4 82.2Z" fill="white"/>
<path d="M355.935 68.8H370.535V95.2H360.135C354.935 95.2 350.468 97.0667 346.735 100.8C343.001 104.4 341.135 108.867 341.135 114.2V177.2H312.135V112.6C312.135 100.6 316.401 90.3333 324.935 81.8C333.468 73.1333 343.801 68.8 355.935 68.8Z" fill="#ffffff"/>
<path d="M448.41 86.043C430.008 87.0796 415.405 102.329 415.404 120.99C415.404 140.323 431.077 155.996 450.41 155.996C469.072 155.996 484.32 141.393 485.357 122.991H507.4C506.605 154.059 481.17 179 449.91 179C418.149 179 392.401 153.252 392.4 121.491C392.4 90.2312 417.342 64.7955 448.41 64V86.043Z" fill="#ffffff"/>
<path d="M483.9 86.5H462.9C462.348 86.5 461.9 86.0523 461.9 85.5V64C461.9 63.4477 462.348 63 462.9 63H507.4C507.953 63 508.4 63.4477 508.4 64V108.5C508.4 109.052 507.953 109.5 507.4 109.5H485.9C485.348 109.5 484.9 109.052 484.9 108.5V87.5C484.9 86.9477 484.453 86.5 483.9 86.5Z" fill="#68C721" stroke="#68C721"/>
</svg>
